<svg width="35" height="35" viewBox="0 0 35 35" fill="none" xmlns="http://www.w3.org/2000/svg">
<path d="M31.5221 12.7468H30.6142C30.3963 12.0932 30.1421 11.4758 29.8153 10.9311L30.4689 10.2774C31.0137 9.73263 31.3405 8.97 31.3405 8.17105C31.3405 7.37211 31.0137 6.64579 30.4689 6.06474L28.3626 3.95842C27.2005 2.79632 25.3121 2.79632 24.15 3.95842L23.5326 4.61211C22.9516 4.32158 22.2979 4.06737 21.6805 3.88579V2.9779C21.6805 1.34368 20.3368 0 18.7026 0H15.7247C14.0905 0 12.7468 1.34368 12.7468 2.9779V3.88579C12.0932 4.10368 11.4758 4.35789 10.9311 4.68474L10.2774 4.03105C9.15158 2.90526 7.19053 2.90526 6.06474 4.03105L3.95842 6.13737C2.79632 7.29947 2.79632 9.18789 3.95842 10.35L4.61211 10.9674C4.32158 11.5484 4.06737 12.2021 3.88579 12.8195H2.97789C1.34368 12.8195 0 14.1632 0 15.7974V18.7753C0 20.4095 1.34368 21.7532 2.97789 21.7532H3.88579C4.10368 22.4068 4.35789 23.0242 4.68474 23.5689L4.03105 24.2226C2.86895 25.3847 2.86895 27.2732 4.03105 28.4353L6.13737 30.5416C7.26316 31.6674 9.22421 31.6674 10.35 30.5416L10.9674 29.8879C11.5484 30.1784 12.2021 30.4326 12.8195 30.6142V31.5221C12.8195 33.1563 14.1632 34.5 15.7974 34.5H18.7753C20.4095 34.5 21.7532 33.1563 21.7532 31.5221V30.6142C22.4068 30.3963 23.0242 30.1421 23.5689 29.8153L24.2226 30.4689C25.3484 31.5947 27.3095 31.5947 28.4353 30.4689L30.5416 28.3626C31.7037 27.2005 31.7037 25.3121 30.5416 24.15L29.8879 23.5326C30.1784 22.9516 30.4326 22.2979 30.6142 21.6805H31.5221C33.1563 21.6805 34.5 20.3368 34.5 18.7026V15.7247C34.5 14.0542 33.1563 12.7468 31.5221 12.7468ZM32.6116 18.6663C32.6116 19.2474 32.1395 19.7195 31.5584 19.7195H30.6505C29.8516 19.7195 29.1253 20.2279 28.8711 21.0268C28.6895 21.5716 28.4716 22.1163 28.2174 22.6247C27.8542 23.3511 27.9995 24.2226 28.5442 24.8037L29.1979 25.4574C29.5974 25.8568 29.5974 26.5468 29.1979 26.9826L27.0553 29.0889C26.6558 29.4884 25.9295 29.4884 25.53 29.0889L24.9126 28.4716C24.3316 27.8905 23.46 27.7816 22.7337 28.1447C22.2253 28.3989 21.6805 28.6168 21.1358 28.7984C20.3732 29.0526 19.8284 29.7789 19.8284 30.5779V31.5221C19.8284 32.1032 19.3563 32.5753 18.7753 32.5753H15.7974C15.2163 32.5753 14.7442 32.1032 14.7442 31.5221V30.6142C14.7442 29.8153 14.2358 29.0889 13.4368 28.8347C12.8921 28.6532 12.3474 28.4353 11.8389 28.1811C11.5847 28.0358 11.2579 27.9632 11.0037 27.9632C10.4589 27.9268 9.98684 28.1084 9.62368 28.4716L8.97 29.1253C8.57053 29.5247 7.88053 29.5247 7.44474 29.1253L5.37474 27.0189C4.97526 26.6195 4.97526 25.9295 5.37474 25.4937L6.02842 24.84C6.60947 24.2589 6.71842 23.3874 6.35526 22.6611C6.10105 22.1526 5.88316 21.6079 5.70158 21.0632C5.44737 20.3005 4.72105 19.7558 3.92211 19.7558H2.97789C2.39684 19.7558 1.92474 19.2837 1.92474 18.7026V15.7611C1.92474 15.18 2.39684 14.7079 2.97789 14.7079H3.88579C4.68474 14.7079 5.41105 14.1995 5.66526 13.4005C5.84684 12.8558 6.06474 12.3111 6.31895 11.8026C6.68211 11.0763 6.53684 10.2047 5.99211 9.62368L5.33842 8.97C4.93895 8.57053 4.93895 7.88053 5.33842 7.44474L7.44474 5.33842C7.84421 4.93895 8.57053 4.93895 8.97 5.33842L9.62368 5.99211C10.2047 6.57316 11.0763 6.68211 11.8026 6.31895C12.3111 6.06474 12.8558 5.84684 13.4005 5.66526C14.1632 5.41105 14.7079 4.68474 14.7079 3.88579V2.94158C14.7079 2.36053 15.18 1.88842 15.7611 1.88842H18.7026C19.2837 1.88842 19.7558 2.36053 19.7558 2.94158V3.84947C19.7558 4.64842 20.2642 5.37474 21.0632 5.62895C21.6079 5.81053 22.1526 6.02842 22.6611 6.28263C23.3874 6.64579 24.2589 6.50053 24.84 5.95579L25.4937 5.30211C25.8932 4.90263 26.5832 4.90263 27.0189 5.30211L29.1253 7.40842C29.3432 7.62632 29.4521 7.88053 29.4521 8.17105C29.4521 8.46158 29.3432 8.71579 29.1253 8.93368L28.5079 9.55105C27.9268 10.1321 27.8179 11.0037 28.1811 11.73C28.4353 12.2384 28.6532 12.7832 28.8347 13.3279C29.0889 14.0905 29.8153 14.6353 30.6142 14.6353H31.5584C32.1395 14.6353 32.6116 15.1074 32.6116 15.6884V18.6663Z" fill="#564F4F"/>
</svg>
